<?xml version="1.0" encoding="UTF-8" standalone="no"?>
<!-- Created with Inkscape (http://www.inkscape.org/) -->

<svg
   xmlns:dc="http://purl.org/dc/elements/1.1/"
   xmlns:cc="http://creativecommons.org/ns#"
   xmlns:rdf="http://www.w3.org/1999/02/22-rdf-syntax-ns#"
   xmlns:svg="http://www.w3.org/2000/svg"
   xmlns="http://www.w3.org/2000/svg"
   xmlns:sodipodi="http://sodipodi.sourceforge.net/DTD/sodipodi-0.dtd"
   xmlns:inkscape="http://www.inkscape.org/namespaces/inkscape"
   width="269.0444"
   height="234.08176"
   id="svg6625"
   sodipodi:version="0.32"
   inkscape:version="0.48.5 r10040"
   version="1.0"
   sodipodi:docname="IMClogo.svg"
   inkscape:output_extension="org.inkscape.output.svg.inkscape">
  <defs
     id="defs6627">
    <inkscape:perspective
       sodipodi:type="inkscape:persp3d"
       inkscape:vp_x="0 : 526.18109 : 1"
       inkscape:vp_y="0 : 1000 : 0"
       inkscape:vp_z="744.09448 : 526.18109 : 1"
       inkscape:persp3d-origin="372.04724 : 350.78739 : 1"
       id="perspective6633" />
  </defs>
  <sodipodi:namedview
     id="base"
     pagecolor="#ffffff"
     bordercolor="#666666"
     borderopacity="1.0"
     gridtolerance="10000"
     guidetolerance="10"
     objecttolerance="10"
     inkscape:pageopacity="0.0"
     inkscape:pageshadow="2"
     inkscape:zoom="1.979899"
     inkscape:cx="86.172695"
     inkscape:cy="82.730133"
     inkscape:document-units="px"
     inkscape:current-layer="layer1"
     showgrid="false"
     inkscape:window-width="1600"
     inkscape:window-height="1123"
     inkscape:window-x="0"
     inkscape:window-y="30"
     fit-margin-top="0"
     fit-margin-left="0"
     fit-margin-right="0"
     fit-margin-bottom="0"
     showguides="true"
     inkscape:guide-bbox="true"
     inkscape:window-maximized="0">
    <sodipodi:guide
       orientation="0,1"
       position="198.48214,224.01786"
       id="guide3760" />
  </sodipodi:namedview>
  <metadata
     id="metadata6630">
    <rdf:RDF>
      <cc:Work
         rdf:about="">
        <dc:format>image/svg+xml</dc:format>
        <dc:type
           rdf:resource="http://purl.org/dc/dcmitype/StillImage" />
      </cc:Work>
    </rdf:RDF>
  </metadata>
  <g
     inkscape:label="Layer 1"
     inkscape:groupmode="layer"
     id="layer1"
     transform="translate(-62.6377,-19.903898)">
    <g
       transform="matrix(1.7758354,0,0,1.7708302,-573.33016,915.55661)"
       id="g6613"
       style="fill:none;fill-opacity:1">
      <g
         id="g6615"
         transform="translate(-46.06299,-131.10236)"
         style="stroke:#000000;stroke-width:1;stroke-miterlimit:4;stroke-opacity:1;stroke-dasharray:none;fill:none;fill-opacity:1">
        <path
           id="path6617"
           d="m 478.40824,-271.79669 c -0.19286,-0.50246 -0.0355,-1.68777 0.34958,-2.63401 1.53576,-3.77344 1.76861,-7.70396 1.59793,-26.97252 -0.15538,-17.53906 -0.38335,-21.33804 -1.22729,-20.45033 -0.39765,0.41824 -1.94672,10.50945 -4.20654,27.40296 -1.22401,9.14972 -2.50209,17.62524 -2.8403,18.83447 -1.25567,4.49023 -2.31371,0.93527 -6.01802,-20.22079 -1.20155,-6.8623 -2.48273,-14.84751 -2.84711,-17.74492 -0.78072,-6.20876 -1.39048,-8.20801 -2.2434,-7.35512 -0.40159,0.40167 -0.51616,6.64443 -0.36012,19.63744 0.23773,19.80023 0.15172,18.99931 2.7157,25.285 0.63477,1.55628 0.61536,1.91917 -0.14346,2.67799 -0.80068,0.80067 -1.29854,0.7036 -5.66789,-1.10511 -2.63462,-1.09059 -5.91261,-2.23443 -7.28451,-2.54188 -1.37185,-0.30745 -4.24076,-1.33988 -6.37525,-2.2943 -4.08998,-1.82875 -4.41239,-2.33511 -3.31858,-5.21194 0.38296,-1.00729 0.36743,-4.30555 -0.0486,-10.33831 -0.73481,-10.65362 -0.0307,-21.32388 2.04272,-30.9534 0.75515,-3.50739 1.62721,-7.87431 1.9378,-9.70425 0.34669,-2.04241 1.03336,-3.83355 1.77831,-4.63855 3.48555,-3.76654 19.23305,-12.49905 20.41259,-11.3195 0.92168,0.92167 1.46712,4.23307 2.40017,14.57173 1.16329,12.88942 2.51739,23.75841 3.17567,25.48977 0.42932,1.12916 0.6254,1.24162 0.9991,0.57307 0.77029,-1.37817 2.08164,-8.55013 3.59939,-19.68576 2.12484,-15.59028 3.07203,-20.92955 3.95933,-22.31978 0.63372,-0.99286 1.30902,-1.24769 3.30649,-1.24769 4.07601,0 7.29743,2.33327 5.7671,4.17718 -0.93433,1.12581 -1.25063,24.78554 -0.6646,49.71482 0.49824,21.1971 0.60005,22.69486 1.68316,24.77292 1.4009,2.68761 1.02122,3.15522 -3.21361,3.95834 -4.67329,0.88627 -8.85033,0.72509 -9.26578,-0.35753 l 5e-5,0 z m -22.25717,-7.68163 c 0.2476,-0.91497 0.69588,-11.6451 0.99621,-23.84473 0.30033,-12.19963 0.84266,-26.37007 1.20521,-31.48987 0.67936,-9.59396 0.49642,-10.92833 -1.39841,-10.20121 -0.46308,0.1777 -1.5849,1.62384 -2.49282,3.21365 -3.20052,5.60389 -4.9983,17.07458 -5.44398,34.73565 -0.34902,13.83177 0.24433,21.30425 2.01538,25.38009 1.87481,4.31455 4.26865,5.34651 5.11841,2.20642 z"
           style="fill:none;fill-opacity:1;stroke:#000000;stroke-width:1;stroke-miterlimit:4;stroke-opacity:1;stroke-dasharray:none"
           inkscape:connector-curvature="0" />
        <path
           id="path6619"
           d="m 503.1212,-275.69917 c -3.28586,-2.03924 -5.7173,-7.88618 -7.22118,-17.3651 -0.98241,-6.19185 -0.9854,-30.94199 -0.005,-38.74885 1.26859,-10.09861 3.9066,-16.14949 7.04085,-16.14949 2.42318,0 11.96445,9.09695 14.27523,13.61054 1.32333,2.58471 2.69723,8.44861 2.5088,10.70748 -0.16159,1.93706 -0.31486,1.74225 -3.64464,-4.63225 -3.77274,-7.22261 -6.68113,-11.53214 -8.40555,-12.45501 -1.46173,-0.78231 -3.10796,0.94762 -3.57188,3.7535 -0.53263,3.22138 -0.39749,29.51001 0.19575,38.09153 0.55746,8.06303 1.4604,14.27663 2.31587,15.93615 0.7739,1.5013 2.93679,1.77156 4.90265,0.61261 0.95345,-0.56207 3.09582,-2.83111 4.7609,-5.04229 1.66503,-2.21118 3.27095,-4.02033 3.56867,-4.02033 1.90298,0 -1.53249,7.19748 -5.70338,11.94884 -2.23531,2.54646 -6.0127,4.69627 -8.20946,4.67226 -0.74246,-0.008 -2.00601,-0.42194 -2.80786,-0.9196 l 0,1e-5 z"
           style="fill:none;fill-opacity:1;stroke:#000000;stroke-width:1;stroke-miterlimit:4;stroke-opacity:1;stroke-dasharray:none"
           inkscape:connector-curvature="0" />
        <path
           id="path6621"
           d="m 471.25984,-252.28347 c -11.88275,-2.00429 -22.25667,-7.30944 -30.74712,-15.72382 -8.24184,-8.16801 -13.36939,-17.69371 -15.90712,-29.55138 -1.25962,-5.88561 -1.25445,-16.40105 0.011,-22.35032 1.01414,-4.76792 2.79136,-10.16422 4.45524,-13.52783 8.40035,-16.98171 23.61017,-28.47917 41.78507,-31.58632 26.98692,-4.61366 53.69674,11.46805 62.64674,37.71893 5.50703,16.15247 3.62955,33.46267 -5.24635,48.37081 -7.12387,11.96543 -19.60222,21.45042 -33.29922,25.31128 -6.79015,1.91398 -16.90119,2.48514 -23.69822,1.33866 l 0,-1e-5 z m 13.98004,-4.89846 c 27.41458,-3.07929 47.41274,-27.58213 45.23935,-55.42976 -0.58669,-7.51731 -2.40523,-13.99778 -5.65697,-20.15897 -7.28629,-13.80555 -19.88082,-23.36323 -35.07311,-26.61608 -4.6748,-1.00093 -15.33548,-1.00004 -19.98436,0.002 -15.53405,3.34718 -28.18589,13.19037 -35.28426,27.45129 -4.15172,8.34096 -5.73895,15.74325 -5.38911,25.13282 0.3132,8.40579 1.69898,14.08633 5.1722,21.20168 9.45008,19.35972 29.93717,30.78049 50.97626,28.41733 l 0,2e-5 z"
           style="fill:none;fill-opacity:1;stroke:#000000;stroke-width:1;stroke-miterlimit:4;stroke-opacity:1;stroke-dasharray:none"
           inkscape:connector-curvature="0" />
      </g>
      <path
         style="fill:none;stroke:#000000;stroke-width:1.07700002;stroke-miterlimit:4;stroke-opacity:1;stroke-dasharray:none"
         d="m 394.81034,-374.33528 c -1.45828,-2.54947 -36.07894,-66.87618 -36.16037,-67.18758 -0.0655,-0.25059 8.22578,-14.32015 18.87521,-32.02939 l 18.99209,-31.58248 37.52144,-0.0596 37.52144,-0.0596 18.71534,32.32777 c 10.29344,17.78027 18.75565,32.49847 18.80492,32.70711 0.0493,0.20864 -8.18549,15.16176 -18.29945,33.22916 l -18.38902,32.84982 -38.73132,0.006 c -21.30223,0.004 -38.78485,-0.0872 -38.85028,-0.20157 l 0,0 z M 502.565,-440.45697 c 0,0 -14.42558,-26.32508 -16.01631,-29.05378 -9.64842,-16.54328 -17.53638,-30.52364 -17.40587,-30.57447 -21.00231,-0.23004 -46.18719,-0.68328 -68.62281,-0.0129 0,0 -7.59662,10.74398 -19.03682,29.66885 -14.71767,24.34358 -17.51586,29.13288 -17.22468,29.48121 0.29061,0.34764 30.70488,56.19325 32.80516,60.23568 l 0.68426,1.317 35.41815,0 35.41815,0 c 0,0 33.88306,-61.0288 33.98077,-61.06159 z"
         id="path6623"
         inkscape:connector-curvature="0"
         sodipodi:nodetypes="ccscccscsccccccccccsscccc" />
    </g>
  </g>
</svg>
