<?xml version="1.0" encoding="UTF-8" standalone="no"?>
<!-- Generator: Adobe Illustrator 22.1.0, SVG Export Plug-In . SVG Version: 6.00 Build 0) -->

<svg
   xmlns:dc="http://purl.org/dc/elements/1.1/"
   xmlns:cc="http://creativecommons.org/ns#"
   xmlns:rdf="http://www.w3.org/1999/02/22-rdf-syntax-ns#"
   xmlns:svg="http://www.w3.org/2000/svg"
   xmlns="http://www.w3.org/2000/svg"
   xmlns:sodipodi="http://sodipodi.sourceforge.net/DTD/sodipodi-0.dtd"
   xmlns:inkscape="http://www.inkscape.org/namespaces/inkscape"
   id="EN"
   x="0px"
   y="0px"
   viewBox="0 0 186.39998 64.1"
   xml:space="preserve"
   version="1.1"
   sodipodi:docname="gacr.svg"
   width="186.39999"
   height="64.099998"
   inkscape:version="0.92.5 (2060ec1f9f, 2020-04-08)"><metadata
   id="metadata97"><rdf:RDF><cc:Work
       rdf:about=""><dc:format>image/svg+xml</dc:format><dc:type
         rdf:resource="http://purl.org/dc/dcmitype/StillImage" /><dc:title></dc:title></cc:Work></rdf:RDF></metadata><defs
   id="defs95" /><sodipodi:namedview
   pagecolor="#ffffff"
   bordercolor="#666666"
   borderopacity="1"
   objecttolerance="10"
   gridtolerance="10"
   guidetolerance="10"
   inkscape:pageopacity="0"
   inkscape:pageshadow="2"
   inkscape:window-width="1848"
   inkscape:window-height="1016"
   id="namedview93"
   showgrid="false"
   fit-margin-top="0"
   fit-margin-left="0"
   fit-margin-right="0"
   fit-margin-bottom="0"
   inkscape:zoom="3.6054508"
   inkscape:cx="123.46207"
   inkscape:cy="-18.664942"
   inkscape:window-x="72"
   inkscape:window-y="27"
   inkscape:window-maximized="1"
   inkscape:current-layer="g90" /> <style
   type="text/css"
   id="style2"> .st0{fill:#FFFFFF;} </style> <g
   id="g90"
   transform="translate(-0.3,-0.4)"> <g
   id="g40"
   style="fill:#1e4382;fill-opacity:1"> <g
   id="g38"
   style="fill:#1e4382;fill-opacity:1"> <g
   id="g12"
   style="fill:#1e4382;fill-opacity:1"> <path
   class="st0"
   d="m 87.4,31.1 c 0,5 -0.5,7.5 -2.1,10.3 -3,5.4 -9.7,9 -16.4,9 -11,0 -20,-9 -20,-19.9 0,-11.1 9.1,-20 20.2,-20 4.4,0 8.7,1.4 12.1,4.2 1.5,1.2 2.7,2.4 4.7,4.9 l -2,1.5 C 82.3,19 81.5,18 80.2,17 77.3,14.4 73.1,12.9 69,12.9 c -9.6,0 -17.6,8.2 -17.6,17.7 0,9.5 7.8,17.4 17.3,17.4 5.6,0 11.5,-3.1 14.2,-7.5 1.2,-1.9 1.6,-3.7 1.7,-7.1 H 71.1 v -2.3 z"
   id="path4"
   inkscape:connector-curvature="0"
   style="fill:#1e4382;fill-opacity:1" /> <path
   class="st0"
   d="m 97.8,36.9 -5.1,12.7 h -2.8 l 16.3,-40 16.2,40 h -2.8 L 114.2,36.9 Z M 106,16.2 98.7,34.6 h 14.7 z"
   id="path6"
   inkscape:connector-curvature="0"
   style="fill:#1e4382;fill-opacity:1" /> <path
   class="st0"
   d="m 159.2,18.8 c -1.7,-2 -2.7,-2.8 -4.5,-3.7 -2.7,-1.5 -5.7,-2.3 -8.5,-2.3 -9.4,0 -17.5,8.2 -17.5,17.7 0,5.1 2.1,9.7 6.1,12.9 3.4,2.8 7.5,4.4 11.4,4.4 3,0 6.8,-1 9.7,-2.9 1.2,-0.7 1.9,-1.3 3.4,-2.8 v 3.4 c -4.3,3.4 -8.3,4.8 -12.9,4.8 -11,0 -20.3,-9.1 -20.3,-19.9 0,-10.8 9.2,-20 20.2,-20 4.9,0 9,1.5 13.1,5 z M 146.1,8.1 138.9,2 141,0.4 l 5.1,4.3 5.1,-4.3 2,1.6 z"
   id="path8"
   inkscape:connector-curvature="0"
   style="fill:#1e4382;fill-opacity:1" /> <path
   class="st0"
   d="m 186.7,49.6 h -3 L 171.2,31.3 H 170 v 18.3 h -2.4 V 10.9 h 5.5 c 4,0 6.2,0.5 8.2,2 2.4,1.7 3.8,4.7 3.8,8.3 0,4 -1.7,7.2 -4.9,8.9 -1.5,0.8 -3,1 -6.2,1.3 z M 173.7,29 c 5.6,0 8.7,-2.9 8.7,-7.9 0,-3 -1.3,-5.6 -3.4,-6.8 -1.4,-0.8 -3.4,-1.2 -5.8,-1.2 h -3.1 V 29 c 0,0 3.6,0 3.6,0 z"
   id="path10"
   inkscape:connector-curvature="0"
   style="fill:#1e4382;fill-opacity:1" /> </g> <g
   id="g36"
   style="fill:#1e4382;fill-opacity:1"> <path
   class="st0"
   d="m 18.3,49.8 c 0.7,0 1.4,-0.1 2.1,-0.2 h -4.2 c 0.6,0.1 1.3,0.2 2.1,0.2 z"
   id="path14"
   inkscape:connector-curvature="0"
   style="fill:#1e4382;fill-opacity:1" /> <path
   class="st0"
   d="m 39,15.8 v -4.9 h -6.4 c 0.1,1 0.2,2 0.2,3 2.3,0.3 4.4,0.9 6.2,1.9 z"
   id="path16"
   inkscape:connector-curvature="0"
   style="fill:#1e4382;fill-opacity:1" /> <path
   class="st0"
   d="m 27,32.7 c 1.9,2.1 2.9,4.8 2.9,7.7 0,1.6 -0.3,3.1 -0.9,4.4 0.7,0.1 1.4,0.1 2.1,0.1 2.9,0 5.6,-0.8 7.9,-2.3 V 18.5 c -1.9,-1.2 -3.8,-2 -6.2,-2.2 -0.2,6.2 -2.3,11.8 -5.8,16.4 z"
   id="path18"
   inkscape:connector-curvature="0"
   style="fill:#1e4382;fill-opacity:1" /> <path
   class="st0"
   d="M 14.4,29.5 C 15,20.9 22,14.2 30.6,13.8 c 0,-1 -0.1,-2 -0.3,-3 h -30 v 31 c 1,0.1 2.2,0.2 3.3,0.2 1.1,0 2,-0.1 3,-0.1 0,-0.5 -0.1,-0.9 -0.1,-1.4 0,-5.1 3.4,-9.5 7.9,-11 z"
   id="path20"
   inkscape:connector-curvature="0"
   style="fill:#1e4382;fill-opacity:1" /> <path
   class="st0"
   d="m 17.7,40.8 c -2.6,1.4 -5.4,2.4 -8.3,3 1,2.9 3.6,5.1 6.6,5.8 h 4.2 c 2,-0.5 3.8,-1.6 5.1,-3.1 -2.9,-1.2 -5.6,-3.2 -7.6,-5.7 z"
   id="path22"
   inkscape:connector-curvature="0"
   style="fill:#1e4382;fill-opacity:1" /> <path
   class="st0"
   d="m 19.8,39.5 c 1.7,2.2 4.2,4 7,4.9 0.6,-1.2 0.9,-2.6 0.9,-4 0,-2.2 -0.8,-4.3 -2.1,-5.9 -1.8,1.9 -3.7,3.6 -5.8,5 z"
   id="path24"
   inkscape:connector-curvature="0"
   style="fill:#1e4382;fill-opacity:1" /> <path
   class="st0"
   d="m 25.3,31.1 c 3.1,-4.2 5,-9.3 5.2,-14.9 -7.1,0.2 -12.9,5.7 -13.8,12.7 0.5,-0.1 0.9,-0.1 1.4,-0.1 2.7,0 5.2,0.9 7.2,2.3 z"
   id="path26"
   inkscape:connector-curvature="0"
   style="fill:#1e4382;fill-opacity:1" /> <path
   class="st0"
   d="m 7.1,44.1 c -1.2,0.1 -2.3,0.2 -3.5,0.2 -1.2,0 -2.2,-0.1 -3.3,-0.2 v 5.4 H 10.9 C 9.2,48.2 7.9,46.3 7.1,44.1 Z"
   id="path28"
   inkscape:connector-curvature="0"
   style="fill:#1e4382;fill-opacity:1" /> <path
   class="st0"
   d="m 8.8,40.5 c 0,0.3 0,0.7 0.1,1 2.7,-0.6 5.2,-1.5 7.6,-2.7 -1.2,-2.1 -1.9,-4.4 -2.1,-6.9 -3.2,1.5 -5.6,4.8 -5.6,8.6 z"
   id="path30"
   inkscape:connector-curvature="0"
   style="fill:#1e4382;fill-opacity:1" /> <path
   class="st0"
   d="m 16.6,31.2 c 0.1,2.3 0.7,4.4 1.7,6.4 2,-1.3 3.7,-2.9 5.4,-4.7 -1.5,-1.2 -3.5,-1.9 -5.6,-1.9 -0.4,0.1 -0.9,0.2 -1.5,0.2 z"
   id="path32"
   inkscape:connector-curvature="0"
   style="fill:#1e4382;fill-opacity:1" /> <path
   class="st0"
   d="m 27.8,47.2 c -0.7,0.9 -1.4,1.7 -2.3,2.4 H 39 v -4.1 c -2.3,1.3 -5,2 -7.9,2 -1,-0.1 -2.2,-0.2 -3.3,-0.3 z"
   id="path34"
   inkscape:connector-curvature="0"
   style="fill:#1e4382;fill-opacity:1" /> </g> </g> </g> <g
   id="g88"
   style="fill:#1e4382;fill-opacity:1"> <g
   id="g86"
   style="fill:#1e4382;fill-opacity:1"> <path
   class="st0"
   d="m 4.4,60.4 c -0.5,-0.5 -1,-0.7 -1.5,-0.7 -1.1,0 -2,0.9 -2,2.1 0,1.1 0.9,2 2,2 0.6,0 1,-0.2 1.5,-0.7 v 0.7 c -0.5,0.3 -1,0.5 -1.5,0.5 -1.4,0 -2.6,-1.2 -2.6,-2.6 0,-1.4 1.2,-2.6 2.6,-2.6 0.6,0 1,0.1 1.5,0.5 z"
   id="path42"
   inkscape:connector-curvature="0"
   style="fill:#1e4382;fill-opacity:1" /> <path
   class="st0"
   d="m 12.4,63.8 v 0.5 H 8.8 l 2.7,-4.5 H 9.1 v -0.5 h 3.3 l -2.7,4.5 z"
   id="path44"
   inkscape:connector-curvature="0"
   style="fill:#1e4382;fill-opacity:1" /> <path
   class="st0"
   d="m 17.6,59.8 v 1.5 h 2 v 0.5 h -2 v 2 h 2 v 0.5 H 17 v -5 h 2.6 v 0.5 z"
   id="path46"
   inkscape:connector-curvature="0"
   style="fill:#1e4382;fill-opacity:1" /> <path
   class="st0"
   d="m 28.3,60.4 c -0.5,-0.5 -1,-0.7 -1.5,-0.7 -1.1,0 -2,0.9 -2,2.1 0,1.1 0.9,2 2,2 0.6,0 1,-0.2 1.5,-0.7 v 0.7 c -0.5,0.3 -1,0.5 -1.5,0.5 -1.4,0 -2.6,-1.2 -2.6,-2.6 0,-1.4 1.2,-2.6 2.6,-2.6 0.6,0 1,0.1 1.5,0.5 z"
   id="path48"
   inkscape:connector-curvature="0"
   style="fill:#1e4382;fill-opacity:1" /> <path
   class="st0"
   d="m 36.2,61.3 v -2 h 0.6 v 5 h -0.6 v -2.4 h -2.6 v 2.4 H 33 v -5 h 0.6 v 2 z"
   id="path50"
   inkscape:connector-curvature="0"
   style="fill:#1e4382;fill-opacity:1" /> <path
   class="st0"
   d="m 49.8,60.3 c -0.3,-0.4 -0.5,-0.5 -0.9,-0.5 -0.5,0 -0.8,0.3 -0.8,0.8 0,0.2 0.1,0.4 0.3,0.5 0.2,0.1 0.2,0.1 0.9,0.4 0.8,0.4 1.1,0.8 1.1,1.4 0,0.9 -0.7,1.5 -1.6,1.5 -0.8,0 -1.4,-0.5 -1.5,-1.3 L 47.8,63 c 0.1,0.3 0.1,0.4 0.2,0.5 0.2,0.3 0.5,0.4 0.8,0.4 0.6,0 1,-0.4 1,-1 0,-0.3 -0.1,-0.5 -0.4,-0.7 -0.2,-0.1 -0.2,-0.1 -0.9,-0.4 -0.7,-0.3 -1,-0.7 -1,-1.2 0,-0.7 0.6,-1.3 1.4,-1.3 0.6,0 1,0.3 1.3,0.8 z"
   id="path52"
   inkscape:connector-curvature="0"
   style="fill:#1e4382;fill-opacity:1" /> <path
   class="st0"
   d="m 59.1,60.4 c -0.5,-0.5 -1,-0.7 -1.5,-0.7 -1.1,0 -2,0.9 -2,2.1 0,1.1 0.9,2 2,2 0.6,0 1,-0.2 1.5,-0.7 v 0.7 c -0.5,0.3 -1,0.5 -1.5,0.5 -1.4,0 -2.6,-1.2 -2.6,-2.6 0,-1.4 1.2,-2.6 2.6,-2.6 0.6,0 1,0.1 1.5,0.5 z"
   id="path54"
   inkscape:connector-curvature="0"
   style="fill:#1e4382;fill-opacity:1" /> <path
   class="st0"
   d="m 64.5,64.3 h -0.6 v -5 h 0.6 z"
   id="path56"
   inkscape:connector-curvature="0"
   style="fill:#1e4382;fill-opacity:1" /> <path
   class="st0"
   d="m 70.1,59.8 v 1.5 h 2 v 0.5 h -2 v 2 h 2 v 0.5 h -2.6 v -5 h 2.6 v 0.5 z"
   id="path58"
   inkscape:connector-curvature="0"
   style="fill:#1e4382;fill-opacity:1" /> <path
   class="st0"
   d="m 77,59.1 3.9,4.1 v -3.9 h 0.6 v 5.2 l -3.9,-4.1 v 3.9 H 77 Z"
   id="path60"
   inkscape:connector-curvature="0"
   style="fill:#1e4382;fill-opacity:1" /> <path
   class="st0"
   d="m 90.4,60.4 c -0.5,-0.5 -1,-0.7 -1.5,-0.7 -1.1,0 -2,0.9 -2,2.1 0,1.1 0.9,2 2,2 0.6,0 1,-0.2 1.5,-0.7 v 0.7 c -0.5,0.3 -1,0.5 -1.5,0.5 -1.4,0 -2.6,-1.2 -2.6,-2.6 0,-1.4 1.2,-2.6 2.6,-2.6 0.6,0 1,0.1 1.5,0.5 z"
   id="path62"
   inkscape:connector-curvature="0"
   style="fill:#1e4382;fill-opacity:1" /> <path
   class="st0"
   d="m 95.7,59.8 v 1.5 h 2 v 0.5 h -2 v 2 h 2 v 0.5 h -2.6 v -5 h 2.6 v 0.5 z"
   id="path64"
   inkscape:connector-curvature="0"
   style="fill:#1e4382;fill-opacity:1" /> <path
   class="st0"
   d="m 108.8,59.8 v 1.5 h 1.7 v 0.5 h -1.7 v 2.5 h -0.6 v -5 h 2.3 v 0.5 z"
   id="path66"
   inkscape:connector-curvature="0"
   style="fill:#1e4382;fill-opacity:1" /> <path
   class="st0"
   d="m 120.3,61.8 c 0,1.4 -1.2,2.6 -2.6,2.6 -0.7,0 -1.4,-0.3 -1.9,-0.9 -0.4,-0.5 -0.6,-1.1 -0.6,-1.7 0,-1.4 1.2,-2.6 2.6,-2.6 1.3,0 2.5,1.2 2.5,2.6 z m -4.7,0 c 0,0.6 0.2,1.1 0.6,1.5 0.4,0.4 0.9,0.6 1.4,0.6 1.1,0 2.1,-0.9 2.1,-2.1 0,-1.1 -0.9,-2.1 -2,-2.1 -1.2,0 -2.1,0.9 -2.1,2.1 z"
   id="path68"
   inkscape:connector-curvature="0"
   style="fill:#1e4382;fill-opacity:1" /> <path
   class="st0"
   d="m 125.6,62.3 c 0,0.5 0,0.7 0.2,1 0.2,0.3 0.6,0.5 1.1,0.5 0.4,0 0.9,-0.2 1.1,-0.5 0.1,-0.2 0.2,-0.4 0.2,-1 v -3.1 h 0.6 v 3.2 c 0,0.5 -0.1,0.9 -0.3,1.2 -0.3,0.4 -0.9,0.7 -1.4,0.7 -0.6,0 -1.1,-0.3 -1.5,-0.7 -0.2,-0.3 -0.3,-0.6 -0.3,-1.2 v -3.2 h 0.6 v 3.1 z"
   id="path70"
   inkscape:connector-curvature="0"
   style="fill:#1e4382;fill-opacity:1" /> <path
   class="st0"
   d="m 133.8,59.1 3.9,4.1 v -3.9 h 0.6 v 5.2 l -3.9,-4.1 v 3.9 h -0.6 z"
   id="path72"
   inkscape:connector-curvature="0"
   style="fill:#1e4382;fill-opacity:1" /> <path
   class="st0"
   d="m 143.3,59.3 h 1 c 0.8,0 1.4,0.2 1.8,0.6 0.6,0.5 0.9,1.1 0.9,1.9 0,0.8 -0.3,1.5 -0.9,1.9 -0.5,0.4 -1,0.6 -1.8,0.6 h -1 z m 1.1,4.5 c 0.6,0 1.1,-0.1 1.4,-0.5 0.4,-0.4 0.7,-0.9 0.7,-1.5 0,-0.6 -0.2,-1.2 -0.7,-1.5 -0.4,-0.3 -0.8,-0.5 -1.4,-0.5 h -0.5 v 4 z"
   id="path74"
   inkscape:connector-curvature="0"
   style="fill:#1e4382;fill-opacity:1" /> <path
   class="st0"
   d="m 152.3,62.9 -0.6,1.4 H 151 l 2.3,-5.2 2.3,5.2 H 155 l -0.6,-1.4 z m 1,-2.6 -0.9,2 h 1.7 z"
   id="path76"
   inkscape:connector-curvature="0"
   style="fill:#1e4382;fill-opacity:1" /> <path
   class="st0"
   d="m 161,64.3 h -0.6 v -4.5 h -1.2 v -0.5 h 3 v 0.5 H 161 Z"
   id="path78"
   inkscape:connector-curvature="0"
   style="fill:#1e4382;fill-opacity:1" /> <path
   class="st0"
   d="m 167.3,64.3 h -0.6 v -5 h 0.6 z"
   id="path80"
   inkscape:connector-curvature="0"
   style="fill:#1e4382;fill-opacity:1" /> <path
   class="st0"
   d="m 177.4,61.8 c 0,1.4 -1.2,2.6 -2.6,2.6 -0.7,0 -1.4,-0.3 -1.9,-0.9 -0.4,-0.5 -0.6,-1.1 -0.6,-1.7 0,-1.4 1.2,-2.6 2.6,-2.6 1.3,0 2.5,1.2 2.5,2.6 z m -4.7,0 c 0,0.6 0.2,1.1 0.6,1.5 0.4,0.4 0.9,0.6 1.4,0.6 1.1,0 2.1,-0.9 2.1,-2.1 0,-1.1 -0.9,-2.1 -2,-2.1 -1.1,0 -2.1,0.9 -2.1,2.1 z"
   id="path82"
   inkscape:connector-curvature="0"
   style="fill:#1e4382;fill-opacity:1" /> <path
   class="st0"
   d="m 182.2,59.1 3.9,4.1 v -3.9 h 0.6 v 5.2 l -3.9,-4.1 v 3.9 h -0.6 z"
   id="path84"
   inkscape:connector-curvature="0"
   style="fill:#1e4382;fill-opacity:1" /> </g> </g> </g> </svg>