<?xml version="1.0" encoding="UTF-8" standalone="no"?>
<!-- Created with Inkscape (http://www.inkscape.org/) -->

<svg
   xmlns:dc="http://purl.org/dc/elements/1.1/"
   xmlns:cc="http://creativecommons.org/ns#"
   xmlns:rdf="http://www.w3.org/1999/02/22-rdf-syntax-ns#"
   xmlns:svg="http://www.w3.org/2000/svg"
   xmlns="http://www.w3.org/2000/svg"
   xmlns:sodipodi="http://sodipodi.sourceforge.net/DTD/sodipodi-0.dtd"
   xmlns:inkscape="http://www.inkscape.org/namespaces/inkscape"
   width="133.24608mm"
   height="71.650421mm"
   viewBox="0 0 133.24608 71.650421"
   version="1.1"
   id="svg16546"
   inkscape:version="0.92.5 (2060ec1f9f, 2020-04-08)"
   sodipodi:docname="RO.svg">
  <defs
     id="defs16540" />
  <sodipodi:namedview
     id="base"
     pagecolor="#ffffff"
     bordercolor="#666666"
     borderopacity="1.0"
     inkscape:pageopacity="0.0"
     inkscape:pageshadow="2"
     inkscape:zoom="0.35"
     inkscape:cx="550.37502"
     inkscape:cy="-516.02619"
     inkscape:document-units="mm"
     inkscape:current-layer="layer1"
     showgrid="false"
     fit-margin-top="0"
     fit-margin-left="0"
     fit-margin-right="0"
     fit-margin-bottom="0"
     inkscape:window-width="1848"
     inkscape:window-height="1016"
     inkscape:window-x="72"
     inkscape:window-y="27"
     inkscape:window-maximized="1" />
  <metadata
     id="metadata16543">
    <rdf:RDF>
      <cc:Work
         rdf:about="">
        <dc:format>image/svg+xml</dc:format>
        <dc:type
           rdf:resource="http://purl.org/dc/dcmitype/StillImage" />
        <dc:title></dc:title>
      </cc:Work>
    </rdf:RDF>
  </metadata>
  <g
     inkscape:label="Layer 1"
     inkscape:groupmode="layer"
     id="layer1"
     transform="translate(197.40279,59.349015)">
    <g
       transform="matrix(0.26458333,0,0,0.26458333,2270.5451,-565.21906)"
       id="g117651"
       style="stroke-linecap:butt;stroke-linejoin:round">
      <g
         transform="translate(-40,-80)"
         id="g117045"
         style="stroke-linecap:butt;stroke-linejoin:round">
        <rect
           style="fill:#01012d;fill-opacity:1;fill-rule:nonzero;stroke:#000000;stroke-width:1.0666666;stroke-linecap:butt;stroke-linejoin:round;stroke-miterlimit:4;stroke-dasharray:none;stroke-dashoffset:0;stroke-opacity:1"
           id="rect31854-1"
           width="151.5098"
           height="223.09669"
           x="-9126.9697"
           y="2039.1245"
           ry="10.349668"
           rx="11.957219"
           inkscape:export-filename="/home/kvint/desalination/microgel/article/figures/closed_pressing.png"
           inkscape:export-xdpi="300"
           inkscape:export-ydpi="300" />
        <path
           sodipodi:nodetypes="cssssc"
           inkscape:connector-curvature="0"
           id="rect3381-7"
           d="m -9125.9912,2165.6736 v -114.882 c 0,-7.8163 6.129,-10.2943 13.742,-10.2943 h 121.23 c 7.613,0 13.74,0.8434 13.74,8.6594 v 116.5169"
           style="fill:#3e6ca4;fill-opacity:1;stroke:none;stroke-width:1.00955176;stroke-linecap:butt;stroke-linejoin:round" />
        <path
           style="fill:#01016d;fill-opacity:1;fill-rule:nonzero;stroke:none;stroke-width:1.00955176;stroke-linecap:butt;stroke-linejoin:round"
           d="m -9266.3562,2254.3271 c 9.495,-16.2562 10.137,-32.0504 2.112,-51.8411 -3.488,-8.5974 -3.404,-14.0551 0.471,-30.675 5.385,-23.0982 3.748,-31.4501 -8.197,-41.8248 -5.099,-4.4291 -8.777,-9.8008 -10.372,-15.1518 -2.386,-8.0014 -1.278,-13.6724 7.1,-36.3187 3.576,-9.6653 4.442,-13.2779 4.562,-19.0168 0.143,-7.0639 0.127,-7.1173 -6.233,-18.271 -6.242,-10.9461 -10.764,-20.3762 -10.764,-22.4512 0,-0.7037 1.259,-1.0413 3.896,-1.0438 2.144,0 5.3,-0.6182 7.014,-1.3689 3.051,-1.3356 3.18,-1.3318 6.062,0.1903 4.08,2.155 11.916,2.1234 16.04,-0.066 l 3.054,-1.6203 2.202,1.5806 c 3.218,2.3091 12.323,2.2873 16.713,-0.041 1.764,-0.935 3.207,-1.3929 3.207,-1.0171 0,0.3757 1.697,1.2607 3.769,1.9669 3.606,1.2278 8.669,1.1978 13.303,-0.078 1.531,-0.4209 1.646,9.0827 1.392,113.1669 -0.312,126.2696 0.294,116.1141 -7.213,121.1804 -5.764,3.8911 -6.573,4.0048 -28.438,4.0048 -19.065,0 -20.39,-0.088 -19.68,-1.3049 z"
           id="path6489-7"
           inkscape:connector-curvature="0" />
        <path
           sodipodi:nodetypes="ccccscccssccccsccscccsccc"
           style="fill:#80e0e0;fill-opacity:1;fill-rule:nonzero;stroke:none;stroke-width:1.00955176;stroke-linecap:butt;stroke-linejoin:round"
           d="m -8874.1872,2246.5297 c -0.739,-1.9247 -1.217,-38.0431 -1.222,-115.6402 v -114.5274 l 2.229,0.8638 c 2.959,1.1466 11.844,0.479 14.204,-1.0673 1.737,-1.1389 2.167,-1.1197 5.922,0.2663 5.166,1.9077 10.472,1.8969 14.837,-0.03 l 3.439,-1.519 2.952,1.5218 c 3.902,2.0127 11.825,2.0416 16.313,0.06 2.769,-1.2228 3.49,-1.2906 4.486,-0.4215 0.653,0.5694 2.485,1.2417 4.072,1.4942 l 2.887,0.459 0.913,9.9301 c 0.971,10.546 1.038,20.3265 0.349,50.5414 -0.55,24.144 0.835,29.5984 11.154,43.9248 3.967,5.5065 3.994,5.6049 3.884,13.9012 -0.108,8.0932 -0.312,8.803 -6.519,22.6444 -3.524,7.8589 -6.912,16.6376 -7.528,19.5085 -1.425,6.6336 0.155,14.305 4.478,21.7598 12.714,21.919 13.3,23.3025 13.266,31.3052 -0.02,5.8476 -1.116,10.3063 -5.105,20.8696 l -2.343,4.3862 -34.416,-0.017 c -18.476,-4.3975 -40.429,8.5424 -48.252,-10.2133 z"
           id="path6499-3"
           inkscape:connector-curvature="0" />
        <path
           style="fill:none;stroke:#000000;stroke-width:2.13333321;stroke-linecap:butt;stroke-linejoin:round;stroke-miterlimit:4;stroke-dasharray:none;stroke-dashoffset:0;stroke-opacity:1"
           d="m -9211.0322,1991.9498 v 246.4762 c 0,9.7615 -9.587,17.6178 -21.498,17.62 l -34.329,0.017"
           id="path6491-7"
           inkscape:connector-curvature="0"
           sodipodi:nodetypes="cssc" />
        <path
           sodipodi:nodetypes="cssc"
           inkscape:connector-curvature="0"
           id="path6501-5"
           d="m -8791.1942,2256.7604 -62.526,-0.2096 c -11.908,-0.041 -21.749,-5.4808 -21.749,-15.3252 v -248.5657"
           style="fill:none;stroke:#000000;stroke-width:2.13333321;stroke-linecap:butt;stroke-linejoin:round;stroke-miterlimit:4;stroke-dasharray:none;stroke-dashoffset:0;stroke-opacity:1" />
        <path
           style="fill:#01016d;fill-opacity:1;fill-rule:nonzero;stroke:none;stroke-width:1.00955176;stroke-linecap:butt;stroke-linejoin:round"
           d="m -9240.7752,2079.3143 v -4.3919 h 34.297 34.298 v 4.3919 4.3916 h -34.298 -34.297 z"
           id="path6509-4"
           inkscape:connector-curvature="0" />
        <path
           style="fill:none;stroke:#000000;stroke-width:1.0666666px;stroke-linecap:butt;stroke-linejoin:miter;stroke-opacity:1"
           d="m -9240.7772,2084.0804 h 139.642"
           id="path6511-4"
           inkscape:connector-curvature="0" />
        <path
           style="fill:none;stroke:#000000;stroke-width:1.0666666px;stroke-linecap:butt;stroke-linejoin:miter;stroke-opacity:1"
           d="m -9240.7772,2074.9053 h 139.642"
           id="path6513-6"
           inkscape:connector-curvature="0" />
        <path
           inkscape:connector-curvature="0"
           id="path6515-5"
           d="m -9172.1202,2079.4407 v -4.392 h 35.432 35.434 v 4.392 4.3916 h -35.434 -35.432 z"
           style="fill:#3e6ca4;fill-opacity:1;fill-rule:nonzero;stroke:none;stroke-width:1.00955176;stroke-linecap:butt;stroke-linejoin:round" />
        <path
           sodipodi:nodetypes="cssscscccssssssssscccssccssscccscccssccssccssscccscs"
           style="fill:#ffffff;fill-opacity:1;stroke:#000000;stroke-width:1.00955176;stroke-linecap:butt;stroke-linejoin:round;stroke-opacity:1"
           d="m -9157.3122,2051.9812 c -0.05,1.3183 -0.142,2.388 -0.3,3.6229 -0.523,4.028 -1.734,8.7911 -3.587,14.1088 -0.319,0.9157 -0.348,0.9868 -0.374,0.9868 -0.02,0 -0.166,-0.056 -0.342,-0.1269 -0.71,-0.28 -1.391,-0.4556 -2.188,-0.5631 -0.437,-0.058 -1.659,-0.058 -2.1,0 -0.566,0.074 -1.181,0.2135 -1.629,0.3645 -0.11,0.039 -0.207,0.066 -0.21,0.063 0,0 -0.11,-0.2362 -0.218,-0.5165 -4.42,-10.6541 -6.1,-19.0812 -4.831,-24.221 0.187,-0.754 0.378,-1.293 0.675,-1.9044 0.572,-1.1736 1.304,-2.0354 2.299,-2.7104 1.193,-0.8089 2.553,-1.2439 4.424,-1.4153 0.179,-0.017 0.614,-0.028 0.964,-0.03 0.573,0 0.666,0 0.895,0.05 2.152,0.4365 3.909,1.8358 5.041,4.0121 0.832,1.5997 1.288,3.4774 1.45,5.9685 0.03,0.3793 0.05,1.9544 0.03,2.3109 z m -0.417,56.8174 c -0.08,1.5577 -0.223,2.6851 -0.487,3.791 -0.586,2.4529 -1.759,4.3952 -3.346,5.5378 -0.803,0.5789 -1.676,0.9683 -2.632,1.1757 -0.278,0.06 -0.32,0.061 -0.941,0.06 -2.124,0 -3.923,-0.4734 -5.319,-1.3909 -1.642,-1.0804 -2.706,-2.8381 -3.179,-5.2503 -0.283,-1.4471 -0.356,-3.2106 -0.21,-5.1095 0.397,-5.1898 2.363,-12.0067 5.716,-19.8214 0.172,-0.4026 0.318,-0.7356 0.322,-0.74 0,0 0.143,0.028 0.316,0.077 0.386,0.1081 0.889,0.2071 1.297,0.2618 0.449,0.06 1.642,0.058 2.089,0 0.43,-0.056 0.93,-0.1604 1.325,-0.2721 0.183,-0.052 0.34,-0.085 0.349,-0.077 0.05,0.049 0.966,2.6533 1.399,3.9666 1.934,5.8551 2.988,10.7392 3.269,15.1422 0.03,0.3852 0.05,2.324 0.03,2.6476 z m -0.218,-29.6441 c -0.05,0.7934 -0.221,1.5361 -0.503,2.2282 -0.977,2.4067 -3.084,4.0662 -5.664,4.4629 -0.39,0.06 -1.258,0.085 -1.675,0.045 -1.116,-0.1018 -2.133,-0.4341 -3.086,-1.0069 -1.815,-1.0903 -3.07,-2.9434 -3.4,-5.0165 -0.327,-2.0464 0.209,-4.0826 1.499,-5.692 1.021,-1.2743 2.5,-2.1893 4.095,-2.5323 0.569,-0.1222 0.775,-0.1426 1.534,-0.141 0.791,0 1.071,0.03 1.707,0.184 1.369,0.3291 2.72,1.1335 3.635,2.1627 1.026,1.1518 1.654,2.5378 1.821,4.0165 0.05,0.3909 0.06,0.9515 0.03,1.2895 z"
           id="path6517"
           inkscape:connector-curvature="0" />
        <path
           inkscape:connector-curvature="0"
           id="path6519-6"
           d="m -8989.9742,2077.0932 v -4.3919 h 34.298 34.296 v 4.3919 4.3916 h -34.296 -34.298 z"
           style="fill:#3e6ca4;fill-opacity:1;fill-rule:nonzero;stroke:none;stroke-width:1.00955176;stroke-linecap:butt;stroke-linejoin:round" />
        <path
           style="fill:#80e0e0;fill-opacity:1;fill-rule:nonzero;stroke:none;stroke-width:1.00955176;stroke-linecap:butt;stroke-linejoin:round"
           d="m -8921.3192,2077.2195 v -4.3919 h 35.433 35.434 v 4.3919 4.3917 h -35.434 -35.433 z"
           id="path6521-5"
           inkscape:connector-curvature="0" />
        <path
           inkscape:connector-curvature="0"
           id="path6523-1"
           d="m -8989.9752,2081.8593 h 139.641"
           style="fill:none;stroke:#000000;stroke-width:1.0666666px;stroke-linecap:butt;stroke-linejoin:miter;stroke-opacity:1" />
        <path
           inkscape:connector-curvature="0"
           id="path6525-4"
           d="m -8989.9752,2072.6843 h 139.641"
           style="fill:none;stroke:#000000;stroke-width:1.0666666px;stroke-linecap:butt;stroke-linejoin:miter;stroke-opacity:1" />
        <path
           inkscape:connector-curvature="0"
           id="path6527"
           d="m -8911.8952,2050.2801 c -0.05,1.319 -0.142,2.389 -0.302,3.623 -0.522,4.028 -1.733,8.791 -3.587,14.109 -0.319,0.916 -0.346,0.987 -0.373,0.987 -0.02,0 -0.166,-0.06 -0.341,-0.126 -0.71,-0.281 -1.392,-0.457 -2.188,-0.564 -0.438,-0.06 -1.66,-0.06 -2.102,0 -0.566,0.08 -1.18,0.213 -1.627,0.365 -0.113,0.03 -0.207,0.06 -0.211,0.06 0,0 -0.102,-0.235 -0.219,-0.517 -4.419,-10.652 -6.1,-19.081 -4.829,-24.22 0.187,-0.754 0.377,-1.293 0.675,-1.905 0.572,-1.173 1.302,-2.034 2.298,-2.709 1.193,-0.81 2.552,-1.244 4.424,-1.417 0.179,-0.01 0.613,-0.03 0.964,-0.03 0.572,0 0.666,0 0.895,0.05 2.151,0.437 3.909,1.837 5.041,4.012 0.832,1.6 1.288,3.478 1.449,5.969 0.03,0.379 0.05,1.955 0.03,2.311 z m -0.418,56.817 c -0.08,1.559 -0.222,2.686 -0.487,3.791 -0.586,2.453 -1.759,4.396 -3.346,5.539 -0.804,0.578 -1.676,0.967 -2.633,1.174 -0.277,0.06 -0.319,0.06 -0.941,0.06 -2.123,0 -3.922,-0.472 -5.318,-1.391 -1.643,-1.079 -2.707,-2.837 -3.179,-5.249 -0.283,-1.448 -0.356,-3.212 -0.211,-5.111 0.398,-5.189 2.364,-12.006 5.717,-19.821 0.172,-0.403 0.317,-0.735 0.322,-0.74 0,0 0.147,0.03 0.317,0.08 0.386,0.111 0.888,0.207 1.296,0.263 0.448,0.06 1.643,0.06 2.09,0 0.43,-0.06 0.93,-0.161 1.325,-0.274 0.182,-0.05 0.339,-0.09 0.349,-0.08 0.05,0.05 0.966,2.654 1.399,3.966 1.933,5.857 2.987,10.74 3.268,15.144 0.02,0.384 0.05,2.324 0.03,2.648 z m -0.218,-29.644 c -0.05,0.794 -0.222,1.537 -0.503,2.229 -0.977,2.406 -3.083,4.066 -5.663,4.463 -0.39,0.06 -1.258,0.08 -1.677,0.05 -1.116,-0.1 -2.131,-0.435 -3.084,-1.007 -1.815,-1.091 -3.072,-2.943 -3.402,-5.016 -0.327,-2.047 0.21,-4.083 1.5,-5.692 1.02,-1.274 2.501,-2.191 4.096,-2.532 0.568,-0.127 0.774,-0.142 1.533,-0.142 0.792,0 1.072,0.03 1.707,0.184 1.368,0.329 2.72,1.134 3.636,2.163 1.025,1.151 1.653,2.537 1.82,4.015 0.05,0.392 0.06,0.952 0.04,1.29 z"
           style="fill:#ffffff;fill-opacity:1;stroke:#000000;stroke-width:1.00955176;stroke-linecap:butt;stroke-linejoin:round;stroke-opacity:1"
           sodipodi:nodetypes="cssscscccssssssssscccssccssscccscccssccssccssscccscs" />
        <path
           inkscape:connector-curvature="0"
           id="path7347"
           d="m -8888.8259,2036.5098 c 0,0 -29.3604,-49.851 -63.1095,-5.4758"
           style="fill:none;stroke:#000000;stroke-width:3.68017483;stroke-linecap:butt;stroke-linejoin:miter;stroke-miterlimit:4;stroke-dasharray:none;stroke-opacity:1" />
        <path
           inkscape:connector-curvature="0"
           id="path7349"
           d="m -8942.6186,2008.158 c -0.7452,0.6956 -14.7113,18.1599 -12.4669,21.9707 2.2444,3.8108 22.6252,-0.3654 22.6252,-0.3654"
           style="fill:none;stroke:#000000;stroke-width:3.68017483;stroke-linecap:butt;stroke-linejoin:miter;stroke-miterlimit:4;stroke-dasharray:none;stroke-opacity:1" />
        <path
           style="fill:none;stroke:#000000;stroke-width:3.68017483;stroke-linecap:butt;stroke-linejoin:miter;stroke-miterlimit:4;stroke-dasharray:none;stroke-opacity:1"
           d="m -8955.3295,2118.1121 c 0,0 29.3604,49.851 63.1095,5.4758"
           id="path7353"
           inkscape:connector-curvature="0" />
        <path
           style="fill:none;stroke:#000000;stroke-width:3.68017483;stroke-linecap:butt;stroke-linejoin:miter;stroke-miterlimit:4;stroke-dasharray:none;stroke-opacity:1"
           d="m -8901.5368,2146.4639 c 0.7452,-0.6956 14.7113,-18.1599 12.4669,-21.9707 -2.2444,-3.8108 -22.6252,0.3654 -22.6252,0.3654"
           id="path7355"
           inkscape:connector-curvature="0" />
        <text
           id="text31984"
           y="2227.6396"
           x="-9025.0615"
           style="font-style:italic;font-variant:normal;font-weight:normal;font-stretch:normal;font-size:20.14190102px;line-height:0%;font-family:'DejaVu Serif';-inkscape-font-specification:'DejaVu Serif Italic';letter-spacing:0px;word-spacing:0px;fill:#ffffff;fill-opacity:1;stroke:none;stroke-width:1.00955164;stroke-linecap:butt;stroke-linejoin:round"
           xml:space="preserve"><tspan
             y="2227.6396"
             x="-9025.0615"
             id="tspan31986"
             sodipodi:role="line"
             style="font-style:italic;font-variant:normal;font-weight:normal;font-stretch:normal;font-size:42.56283951px;line-height:1.25;font-family:'DejaVu Serif';-inkscape-font-specification:'DejaVu Serif Italic';stroke-width:1.00955164;stroke-linecap:butt;stroke-linejoin:round">V</tspan></text>
        <path
           inkscape:connector-curvature="0"
           id="path31856-8"
           d="m -9125.4912,2166.0007 h 146.658"
           style="fill:#0000ff;fill-opacity:1;stroke:#000000;stroke-width:2.13333321;stroke-linecap:butt;stroke-linejoin:miter;stroke-miterlimit:4;stroke-dasharray:2.1333333, 2.1333333;stroke-dashoffset:0;stroke-opacity:1"
           inkscape:export-filename="/home/kvint/desalination/microgel/article/figures/closed_pressing.png"
           inkscape:export-xdpi="300"
           inkscape:export-ydpi="300" />
        <path
           style="color:#000000;font-style:normal;font-variant:normal;font-weight:normal;font-stretch:normal;font-size:medium;line-height:normal;font-family:Sans;-inkscape-font-specification:Sans;text-indent:0;text-align:start;text-decoration:none;text-decoration-line:none;letter-spacing:normal;word-spacing:normal;text-transform:none;writing-mode:lr-tb;direction:ltr;baseline-shift:baseline;text-anchor:start;display:inline;overflow:visible;visibility:visible;fill:#ffffff;fill-opacity:1;fill-rule:nonzero;stroke:#000000;stroke-width:0.5333333;stroke-linecap:butt;stroke-linejoin:round;stroke-miterlimit:4;stroke-dasharray:none;stroke-opacity:1;marker:none;enable-background:accumulate"
           d="m -9107.1438,2163.7759 c 0,-5.3 0.4016,-33.2384 0.4016,-33.2384 h 2.0482 c 0,0 -0.4017,27.9826 -0.4014,33.2384 z"
           id="path31860"
           inkscape:connector-curvature="0" />
        <path
           inkscape:connector-curvature="0"
           style="fill:#ffffff;fill-opacity:1;fill-rule:evenodd;stroke:#000000;stroke-width:0.5333333;stroke-linecap:butt;stroke-linejoin:round;stroke-miterlimit:4;stroke-dasharray:none;stroke-opacity:1"
           d="m -9106.1303,2150.6501 8.1626,-5.2531 -8.1626,18.386 -8.1627,-18.386 z"
           id="path31862" />
        <path
           style="color:#000000;font-style:normal;font-variant:normal;font-weight:normal;font-stretch:normal;font-size:medium;line-height:normal;font-family:Sans;-inkscape-font-specification:Sans;text-indent:0;text-align:start;text-decoration:none;text-decoration-line:none;letter-spacing:normal;word-spacing:normal;text-transform:none;writing-mode:lr-tb;direction:ltr;baseline-shift:baseline;text-anchor:start;display:inline;overflow:visible;visibility:visible;fill:#ffffff;fill-opacity:1;fill-rule:nonzero;stroke:#000000;stroke-width:0.5333333;stroke-linecap:butt;stroke-linejoin:round;stroke-miterlimit:4;stroke-dasharray:none;stroke-opacity:1;marker:none;enable-background:accumulate"
           d="m -9085.5772,2163.7759 c 0,-9.2852 0.4419,-33.2384 0.4419,-33.2384 h 2.008 c 0,0 -0.4015,23.9784 -0.4015,33.2384 z"
           id="path31866"
           inkscape:connector-curvature="0" />
        <path
           inkscape:connector-curvature="0"
           style="fill:#ffffff;fill-opacity:1;fill-rule:evenodd;stroke:#000000;stroke-width:0.5333333;stroke-linecap:butt;stroke-linejoin:round;stroke-miterlimit:4;stroke-dasharray:none;stroke-opacity:1"
           d="m -9084.5478,2150.6501 8.1627,-5.2531 -8.1627,18.386 -8.1626,-18.386 z"
           id="path31868" />
        <path
           style="color:#000000;font-style:normal;font-variant:normal;font-weight:normal;font-stretch:normal;font-size:medium;line-height:normal;font-family:Sans;-inkscape-font-specification:Sans;text-indent:0;text-align:start;text-decoration:none;text-decoration-line:none;letter-spacing:normal;word-spacing:normal;text-transform:none;writing-mode:lr-tb;direction:ltr;baseline-shift:baseline;text-anchor:start;display:inline;overflow:visible;visibility:visible;fill:#ffffff;fill-opacity:1;fill-rule:nonzero;stroke:#000000;stroke-width:0.5333333;stroke-linecap:butt;stroke-linejoin:round;stroke-miterlimit:4;stroke-dasharray:none;stroke-opacity:1;marker:none;enable-background:accumulate"
           d="m -9063.9701,2163.7759 c 0,-9.2851 0.4014,-33.2384 0.4014,-33.2384 h 2.0484 c 0,0 -0.4417,23.9783 -0.442,33.2384 z"
           id="path31872"
           inkscape:connector-curvature="0" />
        <path
           inkscape:connector-curvature="0"
           style="fill:#ffffff;fill-opacity:1;fill-rule:evenodd;stroke:#000000;stroke-width:0.5333333;stroke-linecap:butt;stroke-linejoin:round;stroke-miterlimit:4;stroke-dasharray:none;stroke-opacity:1"
           d="m -9062.9653,2150.6501 8.1626,-5.2531 -8.1626,18.386 -8.1626,-18.386 z"
           id="path31874" />
        <path
           style="color:#000000;font-style:normal;font-variant:normal;font-weight:normal;font-stretch:normal;font-size:medium;line-height:normal;font-family:Sans;-inkscape-font-specification:Sans;text-indent:0;text-align:start;text-decoration:none;text-decoration-line:none;letter-spacing:normal;word-spacing:normal;text-transform:none;writing-mode:lr-tb;direction:ltr;baseline-shift:baseline;text-anchor:start;display:inline;overflow:visible;visibility:visible;fill:#ffffff;fill-opacity:1;fill-rule:nonzero;stroke:#000000;stroke-width:0.5333333;stroke-linecap:butt;stroke-linejoin:round;stroke-miterlimit:4;stroke-dasharray:none;stroke-opacity:1;marker:none;enable-background:accumulate"
           d="m -9042.4035,2163.7759 c 0,-9.2852 0.4017,-33.2384 0.4017,-33.2384 h 2.0481 c 0,0 -0.4016,23.9784 -0.4015,33.2384 z"
           id="path31878"
           inkscape:connector-curvature="0" />
        <path
           inkscape:connector-curvature="0"
           style="fill:#ffffff;fill-opacity:1;fill-rule:evenodd;stroke:#000000;stroke-width:0.5333333;stroke-linecap:butt;stroke-linejoin:round;stroke-miterlimit:4;stroke-dasharray:none;stroke-opacity:1"
           d="m -9041.3828,2150.6501 8.1626,-5.2531 -8.1626,18.386 -8.1626,-18.386 z"
           id="path31880" />
        <path
           style="color:#000000;font-style:normal;font-variant:normal;font-weight:normal;font-stretch:normal;font-size:medium;line-height:normal;font-family:Sans;-inkscape-font-specification:Sans;text-indent:0;text-align:start;text-decoration:none;text-decoration-line:none;letter-spacing:normal;word-spacing:normal;text-transform:none;writing-mode:lr-tb;direction:ltr;baseline-shift:baseline;text-anchor:start;display:inline;overflow:visible;visibility:visible;fill:#ffffff;fill-opacity:1;fill-rule:nonzero;stroke:#000000;stroke-width:0.5333333;stroke-linecap:butt;stroke-linejoin:round;stroke-miterlimit:4;stroke-dasharray:none;stroke-opacity:1;marker:none;enable-background:accumulate"
           d="m -9020.8368,2163.7759 c 0,-9.2852 0.4418,-33.2384 0.4418,-33.2384 h 2.0484 c 0,0 -0.442,23.9784 -0.442,33.2384 z"
           id="path31884"
           inkscape:connector-curvature="0" />
        <path
           inkscape:connector-curvature="0"
           style="fill:#ffffff;fill-opacity:1;fill-rule:evenodd;stroke:#000000;stroke-width:0.5333333;stroke-linecap:butt;stroke-linejoin:round;stroke-miterlimit:4;stroke-dasharray:none;stroke-opacity:1"
           d="m -9019.8004,2150.6501 8.1627,-5.2531 -8.1627,18.386 -8.1626,-18.386 z"
           id="path31886" />
        <path
           style="color:#000000;font-style:normal;font-variant:normal;font-weight:normal;font-stretch:normal;font-size:medium;line-height:normal;font-family:Sans;-inkscape-font-specification:Sans;text-indent:0;text-align:start;text-decoration:none;text-decoration-line:none;letter-spacing:normal;word-spacing:normal;text-transform:none;writing-mode:lr-tb;direction:ltr;baseline-shift:baseline;text-anchor:start;display:inline;overflow:visible;visibility:visible;fill:#ffffff;fill-opacity:1;fill-rule:nonzero;stroke:#000000;stroke-width:0.5333333;stroke-linecap:butt;stroke-linejoin:round;stroke-miterlimit:4;stroke-dasharray:none;stroke-opacity:1;marker:none;enable-background:accumulate"
           d="m -8999.2299,2163.7759 c 0,-9.2852 0.4015,-33.2384 0.4015,-33.2384 h 2.0483 c 0,0 -0.4015,23.9784 -0.4015,33.2384 z"
           id="path31890"
           inkscape:connector-curvature="0" />
        <path
           inkscape:connector-curvature="0"
           style="fill:#ffffff;fill-opacity:1;fill-rule:evenodd;stroke:#000000;stroke-width:0.5333333;stroke-linecap:butt;stroke-linejoin:round;stroke-miterlimit:4;stroke-dasharray:none;stroke-opacity:1"
           d="m -8998.2178,2150.6501 8.1626,-5.2531 -8.1626,18.386 -8.1626,-18.386 z"
           id="path31892" />
        <path
           style="fill:#0000ff;fill-opacity:1;stroke:#ffffff;stroke-width:2.13333321;stroke-linecap:butt;stroke-linejoin:miter;stroke-miterlimit:4;stroke-dasharray:2.13333332, 2.13333332;stroke-dashoffset:2.11314917;stroke-opacity:1"
           d="m -9125.4912,2166.0007 h 146.658"
           id="path31894-6"
           inkscape:connector-curvature="0"
           inkscape:export-filename="/home/kvint/desalination/microgel/article/figures/closed_pressing.png"
           inkscape:export-xdpi="300"
           inkscape:export-ydpi="300" />
        <text
           xml:space="preserve"
           style="font-style:normal;font-variant:normal;font-weight:normal;font-stretch:normal;font-size:20.14190102px;line-height:0%;font-family:'DejaVu Serif';-inkscape-font-specification:'DejaVu Serif';letter-spacing:0px;word-spacing:0px;fill:#ffffff;fill-opacity:1;stroke:none;stroke-width:1.00955164;stroke-linecap:butt;stroke-linejoin:round"
           x="-9029.1016"
           y="2102.3918"
           id="text32006"><tspan
             sodipodi:role="line"
             id="tspan32008"
             x="-9029.1016"
             y="2102.3918"
             style="font-size:42.56283951px;line-height:1.25;stroke-width:1.00955164;stroke-linecap:butt;stroke-linejoin:round"><tspan
               id="tspan117047"
               style="font-style:italic;font-variant:normal;font-weight:normal;font-stretch:normal;font-family:'DejaVu Serif';-inkscape-font-specification:'DejaVu Serif Italic';stroke-linecap:butt;stroke-linejoin:round">c</tspan><tspan
               style="font-size:27.66623497px;baseline-shift:sub;fill:#ffffff;fill-opacity:1;stroke-width:1.00955164;stroke-linecap:butt;stroke-linejoin:round"
               id="tspan32012">s</tspan></tspan></text>
      </g>
      <text
         transform="matrix(0,-1.000236,0.99976406,0,0,0)"
         id="text117051"
         y="-9274.8662"
         x="-2069.8701"
         style="font-style:normal;font-variant:normal;font-weight:normal;font-stretch:normal;font-size:22.17336082px;line-height:0%;font-family:'DejaVu Serif';-inkscape-font-specification:'DejaVu Serif';font-variant-ligatures:normal;font-variant-position:normal;font-variant-caps:normal;font-variant-numeric:normal;font-variant-alternates:normal;font-feature-settings:normal;text-indent:0;text-align:center;text-decoration:none;text-decoration-line:none;text-decoration-style:solid;text-decoration-color:#000000;letter-spacing:0px;word-spacing:0px;text-transform:none;writing-mode:lr-tb;direction:ltr;text-orientation:mixed;dominant-baseline:auto;baseline-shift:baseline;text-anchor:middle;white-space:normal;shape-padding:0;opacity:1;vector-effect:none;fill:#ffffff;fill-opacity:1;stroke:none;stroke-width:1;stroke-linecap:butt;stroke-linejoin:miter;stroke-miterlimit:4;stroke-dasharray:none;stroke-dashoffset:0;stroke-opacity:1;marker:none"
         xml:space="preserve"><tspan
           style="font-style:normal;font-variant:normal;font-weight:normal;font-stretch:normal;font-size:22.17336082px;line-height:0%;font-family:'DejaVu Serif';-inkscape-font-specification:'DejaVu Serif';font-variant-ligatures:normal;font-variant-position:normal;font-variant-caps:normal;font-variant-numeric:normal;font-variant-alternates:normal;font-feature-settings:normal;text-indent:0;text-align:center;text-decoration:none;text-decoration-line:none;text-decoration-style:solid;text-decoration-color:#000000;letter-spacing:0px;word-spacing:0px;text-transform:none;writing-mode:lr-tb;direction:ltr;text-orientation:mixed;dominant-baseline:auto;baseline-shift:baseline;text-anchor:middle;white-space:normal;shape-padding:0;vector-effect:none;fill:#ffffff;fill-opacity:1;stroke:none;stroke-width:1;stroke-linecap:butt;stroke-linejoin:miter;stroke-miterlimit:4;stroke-dasharray:none;stroke-dashoffset:0;stroke-opacity:1;marker:none"
           y="-9274.8662"
           x="-2069.8701"
           id="tspan117049"
           sodipodi:role="line">high salinity</tspan></text>
      <text
         inkscape:export-ydpi="300"
         inkscape:export-xdpi="300"
         inkscape:export-filename="/home/kvint/desalination/microgel/article/figures/closed_pressing.png"
         xml:space="preserve"
         style="font-style:normal;font-variant:normal;font-weight:normal;font-stretch:normal;font-size:22.17336082px;line-height:0%;font-family:'DejaVu Serif';-inkscape-font-specification:'DejaVu Serif';font-variant-ligatures:normal;font-variant-position:normal;font-variant-caps:normal;font-variant-numeric:normal;font-variant-alternates:normal;font-feature-settings:normal;text-indent:0;text-align:center;text-decoration:none;text-decoration-line:none;text-decoration-style:solid;text-decoration-color:#000000;letter-spacing:0px;word-spacing:0px;text-transform:none;writing-mode:lr-tb;direction:ltr;text-orientation:mixed;dominant-baseline:auto;baseline-shift:baseline;text-anchor:middle;white-space:normal;shape-padding:0;opacity:1;vector-effect:none;fill:#000000;fill-opacity:1;stroke:none;stroke-width:1;stroke-linecap:butt;stroke-linejoin:miter;stroke-miterlimit:4;stroke-dasharray:none;stroke-dashoffset:0;stroke-opacity:1;marker:none"
         x="-2069.3755"
         y="-8870.2969"
         id="text117055"
         transform="matrix(0,-1.000236,0.99976406,0,0,0)"><tspan
           sodipodi:role="line"
           id="tspan117053"
           x="-2069.3755"
           y="-8870.2969"
           style="font-style:normal;font-variant:normal;font-weight:normal;font-stretch:normal;font-size:22.17336082px;line-height:0%;font-family:'DejaVu Serif';-inkscape-font-specification:'DejaVu Serif';font-variant-ligatures:normal;font-variant-position:normal;font-variant-caps:normal;font-variant-numeric:normal;font-variant-alternates:normal;font-feature-settings:normal;text-indent:0;text-align:center;text-decoration:none;text-decoration-line:none;text-decoration-style:solid;text-decoration-color:#000000;letter-spacing:0px;word-spacing:0px;text-transform:none;writing-mode:lr-tb;direction:ltr;text-orientation:mixed;dominant-baseline:auto;baseline-shift:baseline;text-anchor:middle;white-space:normal;shape-padding:0;vector-effect:none;fill:#000000;fill-opacity:1;stroke:none;stroke-width:1;stroke-linecap:butt;stroke-linejoin:miter;stroke-miterlimit:4;stroke-dasharray:none;stroke-dashoffset:0;stroke-opacity:1;marker:none">low salinity</tspan></text>
    </g>
  </g>
</svg>
